<svg width="147.95px" height="146.71999816894532px" xmlns="http://www.w3.org/2000/svg" viewBox="176.025 1.640000915527338 147.95 146.71999816894532" style="background: none;" preserveAspectRatio="xMidYMid"><defs><filter id="editing-extrusion" x="-100%" y="-100%" width="300%" height="300%"><feFlood result="color1" flood-color="#d8ebf9"></feFlood><feConvolveMatrix order="8,8" divisor="1" kernelMatrix="1 0 0 0 0 0 0 0 0 1 0 0 0 0 0 0 0 0 1 0 0 0 0 0 0 0 0 1 0 0 0 0 0 0 0 0 1 0 0 0 0 0 0 0 0 1 0 0 0 0 0 0 0 0 1 0 0 0 0 0 0 0 0 1" in="SourceAlpha" result="extrude"></feConvolveMatrix><feComposite in="color1" in2="extrude" result="comp-extrude" operator="in"></feComposite><feOffset dx="4" dy="4" in="comp-extrude" result="offset-extrude"></feOffset><feMerge><feMergeNode in="offset-extrude"></feMergeNode><feMergeNode in="SourceGraphic"></feMergeNode></feMerge></filter></defs><g filter="url(#editing-extrusion)"><g transform="translate(203.9550061225891, 114.55000305175781)"><path d="M12.48-9.47L12.54-11.07L12.48-19.14L12.48-19.14Q12.48-27.58 12.86-31.87L12.86-31.87L12.86-31.87Q13.25-36.16 13.25-36.42L13.25-36.42L13.25-36.42Q13.95-38.66 15.94-38.66L15.94-38.66L15.94-38.66Q16.38-38.66 16.38-38.14L16.38-38.14L16.38-38.14Q16.38-38.08 16.26-37.12L16.26-37.12L16.26-37.12Q15.10-28.16 15.10-13.44L15.10-13.44L15.10-13.44Q15.10-11.65 15.62-5.25L15.62-5.25L15.62-5.25Q16.13 1.15 16.06 2.21L16.06 2.21L16.06 2.21Q16 3.26 15.04 3.26L15.04 3.26L15.04 3.26Q12.99 3.07 10.53 0.06L10.53 0.06L10.53 0.06Q8.06-2.94 5.95-7.55L5.95-7.55L5.95-7.55Q3.84-12.16 2.43-18.30L2.43-18.30L2.43-18.30Q1.02-24.45 1.02-30.34L1.02-30.34L1.02-30.34Q1.02-36.22 3.46-42.62L3.46-42.62L3.46-42.62Q4.86-46.21 6.82-49.15L6.82-49.15L6.82-49.15Q8.77-52.10 11.97-54.05L11.97-54.05L11.97-54.05Q15.17-56 19.01-56L19.01-56L19.01-56Q26.11-56 30.56-49.82L30.56-49.82L30.56-49.82Q35.01-43.65 35.01-35.78L35.01-35.78L35.01-35.78Q35.01-26.56 29.06-21.89L29.06-21.89L29.06-21.89Q25.86-19.33 21.31-18.82L21.31-18.82L21.31-18.82Q20.86-18.69 20.86-18.30L20.86-18.30L20.86-18.30Q20.86-17.02 23.26-13.66L23.26-13.66L23.26-13.66Q25.66-10.30 29.73-7.01L29.73-7.01L29.73-7.01Q33.79-3.71 37.44-3.39L37.44-3.39L37.44-3.39Q39.81-3.39 41.54-5.25L41.54-5.25L41.54-5.25Q42.18-6.02 42.56-6.02L42.56-6.02L42.56-6.02Q43.71-5.31 43.71-4.54L43.71-4.54L43.71-4.54Q43.71-3.71 42.11-2.02L42.11-2.02L42.11-2.02Q40.51-0.32 39.04 0.77L39.04 0.77L39.04 0.77Q35.65 3.26 31.39 3.26L31.39 3.26L31.39 3.26Q27.14 3.26 24.10 0.70L24.10 0.70L24.10 0.70Q21.06-1.86 19.46-6.02L19.46-6.02L19.46-6.02Q16.32-14.14 16.32-23.17L16.32-23.17L16.32-23.17Q16.32-24.13 17.02-24.13L17.02-24.13L17.02-24.13Q17.28-24.06 17.92-23.55L17.92-23.55L17.92-23.55Q19.78-22.08 22.27-21.82L22.27-21.82L22.27-21.82Q25.15-21.82 26.66-24.29L26.66-24.29L26.66-24.29Q28.16-26.75 28.16-30.82L28.16-30.82L28.16-30.82Q28.16-34.88 26.69-39.14L26.69-39.14L26.69-39.14Q25.22-43.39 21.89-46.59L21.89-46.59L21.89-46.59Q18.56-49.79 14.21-49.79L14.21-49.79L14.21-49.79Q10.82-49.79 7.39-44.74L7.39-44.74L7.39-44.74Q3.97-39.68 3.97-32.64L3.97-32.64L3.97-32.64Q3.97-27.26 6.08-20.70L6.08-20.70L6.08-20.70Q8.19-14.14 12.22-8.96L12.22-8.96L12.29-8.96L12.29-8.96Q12.48-8.96 12.48-9.47L12.48-9.47ZM60.03-8.19L60.03-8.19L59.78-6.40L59.78-6.40Q59.78-5.25 60.77-4L60.77-4L60.77-4Q61.76-2.75 63.10-2.75L63.10-2.75L63.10-2.75Q64.13-2.75 64.77-3.20L64.77-3.20L64.77-3.20Q66.18-4.16 66.53-4.51L66.53-4.51L66.53-4.51Q66.88-4.86 67.68-4.86L67.68-4.86L67.68-4.86Q68.48-4.86 68.48-4.29L68.48-4.29L68.48-4.29Q68.48-3.65 65.47-0.26L65.47-0.26L65.47-0.26Q64.51 0.83 62.66 2.05L62.66 2.05L62.66 2.05Q60.80 3.26 59.36 3.26L59.36 3.26L59.36 3.26Q57.92 3.26 57.18 2.78L57.18 2.78L57.18 2.78Q56.45 2.30 56.13 1.28L56.13 1.28L56.13 1.28Q55.74-0.13 55.74-2.18L55.74-2.18L55.74-2.18Q55.74-2.43 55.42-2.43L55.42-2.43L55.42-2.43Q55.10-2.43 53.95-1.15L53.95-1.15L53.95-1.15Q50.37 2.56 48.16 2.56L48.16 2.56L48.16 2.56Q45.95 2.56 44.77 1.41L44.77 1.41L44.77 1.41Q43.58 0.26 43.58-1.54L43.58-1.54L43.58-1.54Q43.58-4.67 45.25-7.52L45.25-7.52L45.25-7.52Q46.91-10.37 49.22-12.10L49.22-12.10L49.22-12.10Q54.34-15.87 57.15-15.87L57.15-15.87L57.15-15.87Q61.38-15.74 61.38-12.86L61.38-12.86L61.38-12.86Q61.38-11.84 60.48-10.85L60.48-10.85L60.48-10.85Q59.58-9.86 58.82-9.86L58.82-9.86L58.82-9.86Q58.05-9.86 56.70-11.20L56.70-11.20L56.70-11.20Q55.36-12.54 53.76-12.54L53.76-12.54L53.76-12.54Q52.16-12.54 51.14-11.23L51.14-11.23L51.14-11.23Q50.11-9.92 50.11-7.87L50.11-7.87L50.11-7.87Q50.11-4.54 53.63-4.54L53.63-4.54L53.63-4.54Q55.04-4.54 55.97-5.25L55.97-5.25L55.97-5.25Q56.90-5.95 57.28-6.78L57.28-6.78L57.28-6.78Q58.37-8.96 59.26-8.96L59.26-8.96L59.26-8.96Q60.03-8.96 60.03-8.19ZM77.25-29.31L77.25-29.31L77.25-29.31Q77.25-30.14 76.83-30.98L76.83-30.98L76.83-30.98Q76.42-31.81 75.90-31.81L75.90-31.81L75.90-31.81Q73.86-31.81 73.22-20.61L73.22-20.61L73.22-20.61Q72.90-16.19 72.70-11.71L72.70-11.71L72.70-11.71Q77.25-22.98 77.25-29.31ZM70.14 3.65L70.14 3.65Q67.90 3.33 66.43 2.21L66.43 2.21L66.43 2.21Q64.96 1.09 64.96 0.48L64.96 0.48L64.96 0.48Q64.96-0.13 65.41-0.64L65.41-0.64L65.41-0.64Q65.79-1.15 66.62-2.18L66.62-2.18L66.62-2.18Q68.61-4.42 68.86-4.80L68.86-4.80L68.86-4.80Q69.12-5.18 69.50-5.18L69.50-5.18L69.50-5.18Q69.89-5.18 70.27-5.06L70.27-5.06L70.27-5.06Q70.66-32.19 74.30-37.31L74.30-37.31L74.30-37.31Q75.26-38.72 76.54-38.72L76.54-38.72L76.54-38.72Q79.87-38.72 79.87-33.54L79.87-33.54L79.87-33.54Q79.87-28.35 77.34-20.48L77.34-20.48L77.34-20.48Q74.82-12.61 72.58-8.26L72.58-8.26L72.58-8.26Q72.51-6.53 72.51-3.90L72.51-3.90L72.45-3.46L72.45-3.46Q73.86-2.62 75.68-2.62L75.68-2.62L75.68-2.62Q77.50-2.62 78.46-3.20L78.46-3.20L78.46-3.20Q79.42-3.78 79.87-3.78L79.87-3.78L79.87-3.78Q80.32-3.78 80.32-3.33L80.32-3.33L80.32-3.33Q80.32-1.02 77.41 1.34L77.41 1.34L77.41 1.34Q74.50 3.71 72.06 3.78L72.06 3.78L72.00 5.18L72.00 5.18Q72.32 5.57 72.80 6.24L72.80 6.24L72.80 6.24Q73.28 6.91 74.11 9.28L74.11 9.28L74.11 9.28Q74.94 11.65 74.94 14.62L74.94 14.62L74.94 14.62Q74.94 17.60 73.63 20.35L73.63 20.35L73.63 20.35Q72.32 23.10 70.91 23.10L70.91 23.10L70.91 23.10Q69.70 23.10 69.63 22.21L69.63 22.21L69.63 22.21Q69.50 20.54 69.50 18.53L69.50 18.53L69.50 18.53Q69.50 16.51 69.82 11.33L69.82 11.33L69.82 11.33Q70.14 6.14 70.14 5.70L70.14 5.70L70.14 3.65ZM85.15 0.32L85.15 0.32L85.15 0.32Q84.16-0.77 84.16-2.37L84.16-2.37L84.16-2.37Q84.16-3.97 85.15-5.06L85.15-5.06L85.15-5.06Q86.14-6.14 87.62-6.14L87.62-6.14L87.62-6.14Q89.09-6.14 90.08-5.06L90.08-5.06L90.08-5.06Q91.07-3.97 91.07-2.37L91.07-2.37L91.07-2.37Q91.07-0.77 90.08 0.32L90.08 0.32L90.08 0.32Q89.09 1.41 87.62 1.41L87.62 1.41L87.62 1.41Q86.14 1.41 85.15 0.32Z" fill="#6978d1"></path></g></g><style>text {
  font-size: 64px;
  font-family: Arial Black;
  dominant-baseline: central;
  text-anchor: middle;
}</style></svg>